<svg width="10" height="13" viewBox="0 0 10 13" fill="none" xmlns="http://www.w3.org/2000/svg">
<path id="Vector" d="M8.88889 0.666687H1.11111C0.5 0.666687 0 1.16669 0 1.7778V9.55558C0 10.1667 0.5 10.6667 1.11111 10.6667H3.33333L5 12.3334L6.66667 10.6667H8.88889C9.5 10.6667 10 10.1667 10 9.55558V1.7778C10 1.16669 9.5 0.666687 8.88889 0.666687ZM8.88889 9.55558H6.20556L5.87778 9.88335L5 10.7611L4.11667 9.8778L3.79444 9.55558H1.11111V1.7778H8.88889V9.55558ZM5 9.00002L6.04444 6.71113L8.33333 5.66669L6.04444 4.62224L5 2.33335L3.95556 4.62224L1.66667 5.66669L3.95556 6.71113L5 9.00002Z" fill="white" fill-opacity="0.3"/>
</svg>
