<svg width="10" height="11" viewBox="0 0 10 11" fill="none" xmlns="http://www.w3.org/2000/svg">
<path id="Vector" d="M5 0.5C5.66304 0.5 6.29893 0.763392 6.76777 1.23223C7.23661 1.70107 7.5 2.33696 7.5 3C7.5 3.66304 7.23661 4.29893 6.76777 4.76777C6.29893 5.23661 5.66304 5.5 5 5.5C4.33696 5.5 3.70107 5.23661 3.23223 4.76777C2.76339 4.29893 2.5 3.66304 2.5 3C2.5 2.33696 2.76339 1.70107 3.23223 1.23223C3.70107 0.763392 4.33696 0.5 5 0.5ZM5 6.75C7.7625 6.75 10 7.86875 10 9.25V10.5H0V9.25C0 7.86875 2.2375 6.75 5 6.75Z" fill="white" fill-opacity="0.3"/>
</svg>
