<svg width="12" height="12" viewBox="0 0 12 12" fill="none" xmlns="http://www.w3.org/2000/svg">
<path id="Vector" opacity="0.25" d="M10.0067 10.9592L10.0067 10.9592L10.0085 10.961C10.1355 11.0836 10.3056 11.1515 10.4822 11.15C10.6587 11.1484 10.8276 11.0776 10.9524 10.9528C11.0773 10.8279 11.1481 10.6591 11.1496 10.4825C11.1511 10.306 11.0833 10.1359 10.9606 10.0089L10.9606 10.0089L10.9588 10.0071L9.14048 8.18875C9.62754 7.53255 9.93141 6.75766 10.0196 5.94361C10.1126 5.08527 9.96212 4.21808 9.58529 3.44129C9.20847 2.6645 8.62056 2.00949 7.88886 1.55122C7.15715 1.09295 6.31121 0.849942 5.44784 0.85C4.71461 0.850062 3.99202 1.02547 3.34037 1.36159C2.68871 1.69771 2.12689 2.1848 1.70176 2.78221C1.27664 3.37962 1.00054 4.07003 0.896515 4.79585C0.792486 5.52166 0.863538 6.26183 1.10374 6.9546C1.34395 7.64738 1.74634 8.27266 2.27735 8.77829C2.80836 9.28391 3.45259 9.65522 4.15629 9.86124C4.85998 10.0673 5.60274 10.102 6.3226 9.96257C6.99872 9.83161 7.63622 9.55057 8.18836 9.14085L10.0067 10.9592ZM2.19626 5.44823C2.19626 4.58586 2.53884 3.7588 3.14863 3.14901C3.75842 2.53922 4.58548 2.19664 5.44785 2.19664C6.31023 2.19664 7.13729 2.53922 7.74708 3.14901C8.35687 3.7588 8.69945 4.58586 8.69945 5.44823C8.69945 6.31061 8.35687 7.13766 7.74708 7.74745C7.13729 8.35725 6.31023 8.69982 5.44785 8.69982C4.58548 8.69982 3.75842 8.35725 3.14863 7.74745C2.53884 7.13766 2.19626 6.31061 2.19626 5.44823Z" fill="white" stroke="white" stroke-width="0.3"/>
</svg>
