<svg width="10" height="11" viewBox="0 0 10 11" fill="none" xmlns="http://www.w3.org/2000/svg">
<path id="Vector" d="M3.63184 10.4751L3.43284 8.88308C3.32504 8.84162 3.22355 8.79187 3.12836 8.73383C3.03317 8.67579 2.9398 8.6136 2.84826 8.54726L1.36816 9.16915L0 6.80597L1.28109 5.83582C1.2728 5.77777 1.26866 5.72189 1.26866 5.66816V5.33233C1.26866 5.27827 1.2728 5.22222 1.28109 5.16418L0 4.19403L1.36816 1.83084L2.84826 2.45273C2.93947 2.3864 3.03483 2.32421 3.13433 2.26617C3.23383 2.20812 3.33333 2.15837 3.43284 2.11691L3.63184 0.524872H6.36816L6.56716 2.11691C6.67496 2.15837 6.77662 2.20812 6.87214 2.26617C6.96766 2.32421 7.06086 2.3864 7.15174 2.45273L8.63184 1.83084L10 4.19403L8.71891 5.16418C8.7272 5.22222 8.73134 5.27827 8.73134 5.33233V5.66766C8.73134 5.72172 8.72305 5.77777 8.70647 5.83582L9.98756 6.80597L8.6194 9.16915L7.15174 8.54726C7.06053 8.6136 6.96518 8.67579 6.86567 8.73383C6.76617 8.79187 6.66667 8.84162 6.56716 8.88308L6.36816 10.4751H3.63184ZM5.02488 7.24129C5.50581 7.24129 5.91625 7.07131 6.25622 6.73134C6.59619 6.39137 6.76617 5.98093 6.76617 5.5C6.76617 5.01907 6.59619 4.60862 6.25622 4.26865C5.91625 3.92869 5.50581 3.7587 5.02488 3.7587C4.53566 3.7587 4.12305 3.92869 3.78707 4.26865C3.45108 4.60862 3.28325 5.01907 3.28358 5.5C3.28391 5.98093 3.45191 6.39137 3.78756 6.73134C4.12322 7.07131 4.53566 7.24129 5.02488 7.24129Z" fill="white" fill-opacity="0.3"/>
</svg>
